<svg xmlns="http://www.w3.org/2000/svg" viewBox="0 0 32 32" width="32" height="32">
  <!-- QR kod arka plan -->
  <rect width="32" height="32" fill="#3498db" rx="4"/>
  
  <!-- QR kod deseni -->
  <!-- Sol üst köşe -->
  <rect x="2" y="2" width="6" height="6" fill="white"/>
  <rect x="3" y="3" width="4" height="4" fill="#3498db"/>
  <rect x="4" y="4" width="2" height="2" fill="white"/>
  
  <!-- Sağ üst köşe -->
  <rect x="24" y="2" width="6" height="6" fill="white"/>
  <rect x="25" y="3" width="4" height="4" fill="#3498db"/>
  <rect x="26" y="4" width="2" height="2" fill="white"/>
  
  <!-- Sol alt köşe -->
  <rect x="2" y="24" width="6" height="6" fill="white"/>
  <rect x="3" y="25" width="4" height="4" fill="#3498db"/>
  <rect x="4" y="26" width="2" height="2" fill="white"/>
  
  <!-- Orta kısım QR deseni -->
  <rect x="10" y="2" width="2" height="2" fill="white"/>
  <rect x="14" y="2" width="2" height="2" fill="white"/>
  <rect x="18" y="2" width="2" height="2" fill="white"/>
  
  <rect x="2" y="10" width="2" height="2" fill="white"/>
  <rect x="6" y="10" width="2" height="2" fill="white"/>
  <rect x="10" y="10" width="2" height="2" fill="white"/>
  <rect x="14" y="10" width="2" height="2" fill="white"/>
  <rect x="18" y="10" width="2" height="2" fill="white"/>
  <rect x="22" y="10" width="2" height="2" fill="white"/>
  <rect x="26" y="10" width="2" height="2" fill="white"/>
  <rect x="30" y="10" width="2" height="2" fill="white"/>
  
  <rect x="10" y="14" width="2" height="2" fill="white"/>
  <rect x="18" y="14" width="2" height="2" fill="white"/>
  <rect x="22" y="14" width="2" height="2" fill="white"/>
  
  <rect x="2" y="18" width="2" height="2" fill="white"/>
  <rect x="10" y="18" width="2" height="2" fill="white"/>
  <rect x="14" y="18" width="2" height="2" fill="white"/>
  <rect x="22" y="18" width="2" height="2" fill="white"/>
  <rect x="26" y="18" width="2" height="2" fill="white"/>
  <rect x="30" y="18" width="2" height="2" fill="white"/>
  
  <rect x="6" y="22" width="2" height="2" fill="white"/>
  <rect x="10" y="22" width="2" height="2" fill="white"/>
  <rect x="18" y="22" width="2" height="2" fill="white"/>
  <rect x="22" y="22" width="2" height="2" fill="white"/>
  <rect x="30" y="22" width="2" height="2" fill="white"/>
  
  <rect x="10" y="30" width="2" height="2" fill="white"/>
  <rect x="14" y="30" width="2" height="2" fill="white"/>
  <rect x="18" y="30" width="2" height="2" fill="white"/>
  <rect x="22" y="30" width="2" height="2" fill="white"/>
  <rect x="26" y="30" width="2" height="2" fill="white"/>
</svg>
